<?xml version="1.0" encoding="UTF-8" standalone="no"?>
<!DOCTYPE svg PUBLIC "-//W3C//DTD SVG 1.1//EN"
 "http://www.w3.org/Graphics/SVG/1.1/DTD/svg11.dtd">
<!-- Generated by graphviz version 2.40.1 (20161225.0304)
 -->
<!-- Title: dependencies Pages: 1 -->
<svg width="1583pt" height="523pt"
 viewBox="0.00 0.00 1583.00 523.00" xmlns="http://www.w3.org/2000/svg" xmlns:xlink="http://www.w3.org/1999/xlink">
<g id="graph0" class="graph" transform="scale(1 1) rotate(0) translate(4 519)">
<title>dependencies</title>
<polygon fill="#ffffff" stroke="transparent" points="-4,4 -4,-519 1579,-519 1579,4 -4,4"/>
<text text-anchor="start" x="766.5091" y="-42.4" font-family="sans-serif" font-weight="bold" font-size="14.00" fill="#000000">Legend</text>
<polygon fill="#ffffb3" stroke="transparent" points="553.5,-10 553.5,-30 573.5,-30 573.5,-10 553.5,-10"/>
<text text-anchor="start" x="577.129" y="-15.4" font-family="sans-serif" font-size="14.00" fill="#000000"> &#160;Declarations</text>
<polygon fill="#8dd3c7" stroke="transparent" points="666.5,-10 666.5,-30 686.5,-30 686.5,-10 666.5,-10"/>
<text text-anchor="start" x="690.2251" y="-15.4" font-family="sans-serif" font-size="14.00" fill="#000000"> &#160;Module</text>
<polygon fill="#80b1d3" stroke="transparent" points="752.5,-10 752.5,-30 772.5,-30 772.5,-10 752.5,-10"/>
<text text-anchor="start" x="776.2812" y="-15.4" font-family="sans-serif" font-size="14.00" fill="#000000"> &#160;Bootstrap</text>
<polygon fill="#fdb462" stroke="transparent" points="849.5,-10 849.5,-30 869.5,-30 869.5,-10 849.5,-10"/>
<text text-anchor="start" x="873.1732" y="-15.4" font-family="sans-serif" font-size="14.00" fill="#000000"> &#160;Providers</text>
<polygon fill="#fb8072" stroke="transparent" points="945.5,-10 945.5,-30 965.5,-30 965.5,-10 945.5,-10"/>
<text text-anchor="start" x="969.2258" y="-15.4" font-family="sans-serif" font-size="14.00" fill="#000000"> &#160;Exports</text>
<g id="clust1" class="cluster">
<title>cluster_AboutModule</title>
<polygon fill="none" stroke="#000000" stroke-dasharray="1,5" points="248,-374 248,-499 560,-499 560,-374 248,-374"/>
</g>
<g id="clust2" class="cluster">
<title>cluster_AboutModule_declarations</title>
<polygon fill="none" stroke="#000000" points="420,-382 420,-434 552,-434 552,-382 420,-382"/>
</g>
<g id="clust4" class="cluster">
<title>cluster_AboutModule_imports</title>
<polygon fill="none" stroke="#000000" points="256,-382 256,-434 412,-434 412,-382 256,-382"/>
</g>
<g id="clust8" class="cluster">
<title>cluster_AboutRoutingModule</title>
<polygon fill="none" stroke="#000000" stroke-dasharray="1,5" points="8,-298 8,-366 675,-366 675,-298 8,-298"/>
</g>
<g id="clust9" class="cluster">
<title>cluster_AboutRoutingModule_declarations</title>
<polygon fill="none" stroke="#000000" points="348,-306 348,-358 667,-358 667,-306 348,-306"/>
</g>
<g id="clust12" class="cluster">
<title>cluster_AboutRoutingModule_imports</title>
<polygon fill="none" stroke="#000000" points="142,-306 142,-358 340,-358 340,-306 142,-306"/>
</g>
<g id="clust13" class="cluster">
<title>cluster_AboutRoutingModule_exports</title>
<polygon fill="none" stroke="#000000" points="16,-306 16,-358 134,-358 134,-306 16,-306"/>
</g>
<g id="clust16" class="cluster">
<title>cluster_AppModule</title>
<polygon fill="none" stroke="#000000" stroke-dasharray="1,5" points="683,-298 683,-507 1213,-507 1213,-298 683,-298"/>
</g>
<g id="clust17" class="cluster">
<title>cluster_AppModule_declarations</title>
<polygon fill="none" stroke="#000000" points="1083,-306 1083,-358 1205,-358 1205,-306 1083,-306"/>
</g>
<g id="clust19" class="cluster">
<title>cluster_AppModule_imports</title>
<polygon fill="none" stroke="#000000" points="819,-306 819,-358 1075,-358 1075,-306 819,-306"/>
</g>
<g id="clust21" class="cluster">
<title>cluster_AppModule_bootstrap</title>
<polygon fill="none" stroke="#000000" points="876,-447 876,-499 1000,-499 1000,-447 876,-447"/>
</g>
<g id="clust22" class="cluster">
<title>cluster_AppModule_providers</title>
<polygon fill="none" stroke="#000000" points="691,-306 691,-358 811,-358 811,-306 691,-306"/>
</g>
<g id="clust23" class="cluster">
<title>cluster_AppRoutingModule</title>
<polygon fill="none" stroke="#000000" stroke-dasharray="1,5" points="1009,-222 1009,-290 1219,-290 1219,-222 1009,-222"/>
</g>
<g id="clust25" class="cluster">
<title>cluster_AppRoutingModule_imports</title>
<polygon fill="none" stroke="#000000" points="1017,-230 1017,-282 1211,-282 1211,-230 1017,-230"/>
</g>
<g id="clust29" class="cluster">
<title>cluster_FooterModule</title>
<polygon fill="none" stroke="#000000" stroke-dasharray="1,5" points="721,-70 721,-290 1001,-290 1001,-70 721,-70"/>
</g>
<g id="clust30" class="cluster">
<title>cluster_FooterModule_declarations</title>
<polygon fill="none" stroke="#000000" points="859,-78 859,-130 993,-130 993,-78 859,-78"/>
</g>
<g id="clust32" class="cluster">
<title>cluster_FooterModule_imports</title>
<polygon fill="none" stroke="#000000" points="729,-78 729,-130 851,-130 851,-78 729,-78"/>
</g>
<g id="clust33" class="cluster">
<title>cluster_FooterModule_exports</title>
<polygon fill="none" stroke="#000000" points="855,-230 855,-282 993,-282 993,-230 855,-230"/>
</g>
<g id="clust36" class="cluster">
<title>cluster_HeaderModule</title>
<polygon fill="none" stroke="#000000" stroke-dasharray="1,5" points="1293,-146 1293,-366 1567,-366 1567,-146 1293,-146"/>
</g>
<g id="clust37" class="cluster">
<title>cluster_HeaderModule_declarations</title>
<polygon fill="none" stroke="#000000" points="1421,-154 1421,-206 1559,-206 1559,-154 1421,-154"/>
</g>
<g id="clust39" class="cluster">
<title>cluster_HeaderModule_imports</title>
<polygon fill="none" stroke="#000000" points="1301,-154 1301,-206 1413,-206 1413,-154 1301,-154"/>
</g>
<g id="clust40" class="cluster">
<title>cluster_HeaderModule_exports</title>
<polygon fill="none" stroke="#000000" points="1320,-306 1320,-358 1462,-358 1462,-306 1320,-306"/>
</g>
<g id="clust43" class="cluster">
<title>cluster_HomeModule</title>
<polygon fill="none" stroke="#000000" stroke-dasharray="1,5" points="57,-222 57,-290 713,-290 713,-222 57,-222"/>
</g>
<g id="clust44" class="cluster">
<title>cluster_HomeModule_declarations</title>
<polygon fill="none" stroke="#000000" points="429,-230 429,-282 561,-282 561,-230 429,-230"/>
</g>
<g id="clust46" class="cluster">
<title>cluster_HomeModule_imports</title>
<polygon fill="none" stroke="#000000" points="65,-230 65,-282 421,-282 421,-230 65,-230"/>
</g>
<g id="clust47" class="cluster">
<title>cluster_HomeModule_exports</title>
<polygon fill="none" stroke="#000000" points="569,-230 569,-282 705,-282 705,-230 569,-230"/>
</g>
<g id="clust56" class="cluster">
<title>cluster_ListModule</title>
<polygon fill="none" stroke="#000000" stroke-dasharray="1,5" points="139,-146 139,-214 519,-214 519,-146 139,-146"/>
</g>
<g id="clust57" class="cluster">
<title>cluster_ListModule_declarations</title>
<polygon fill="none" stroke="#000000" points="391,-154 391,-206 511,-206 511,-154 391,-154"/>
</g>
<g id="clust59" class="cluster">
<title>cluster_ListModule_imports</title>
<polygon fill="none" stroke="#000000" points="277,-154 277,-206 383,-206 383,-154 277,-154"/>
</g>
<g id="clust60" class="cluster">
<title>cluster_ListModule_exports</title>
<polygon fill="none" stroke="#000000" points="147,-154 147,-206 269,-206 269,-154 147,-154"/>
</g>
<g id="clust63" class="cluster">
<title>cluster_TodoModule</title>
<polygon fill="none" stroke="#000000" stroke-dasharray="1,5" points="72,-70 72,-138 621,-138 621,-70 72,-70"/>
</g>
<g id="clust64" class="cluster">
<title>cluster_TodoModule_declarations</title>
<polygon fill="none" stroke="#000000" points="218,-78 218,-130 613,-130 613,-78 218,-78"/>
</g>
<g id="clust69" class="cluster">
<title>cluster_TodoModule_exports</title>
<polygon fill="none" stroke="#000000" points="80,-78 80,-130 210,-130 210,-78 80,-78"/>
</g>
<!-- AboutComponent -->
<g id="node1" class="node">
<title>AboutComponent</title>
<polygon fill="#ffffb3" stroke="#000000" points="544.3301,-426 427.6699,-426 427.6699,-390 544.3301,-390 544.3301,-426"/>
<text text-anchor="middle" x="486" y="-403.8" font-family="Times,serif" font-size="14.00" fill="#000000">AboutComponent</text>
</g>
<!-- AboutModule -->
<g id="node2" class="node">
<title>AboutModule</title>
<polygon fill="#8dd3c7" stroke="#000000" points="457.0481,-491 454.0481,-495 433.0481,-495 430.0481,-491 362.9519,-491 362.9519,-455 457.0481,-455 457.0481,-491"/>
<text text-anchor="middle" x="410" y="-468.8" font-family="Times,serif" font-size="14.00" fill="#000000">AboutModule</text>
</g>
<!-- AboutComponent&#45;&gt;AboutModule -->
<g id="edge1" class="edge">
<title>AboutComponent&#45;&gt;AboutModule</title>
<path fill="none" stroke="#000000" d="M442.5544,-426.1061C442.5544,-426.1061 442.5544,-444.991 442.5544,-444.991"/>
<polygon fill="#000000" stroke="#000000" points="439.0544,-444.9909 442.5544,-454.991 446.0544,-444.991 439.0544,-444.9909"/>
</g>
<!-- AboutRoutingModule -->
<g id="node3" class="node">
<title>AboutRoutingModule</title>
<polygon fill="#8dd3c7" stroke="#000000" points="403.6652,-426 400.6652,-430 379.6652,-430 376.6652,-426 264.3348,-426 264.3348,-390 403.6652,-390 403.6652,-426"/>
<text text-anchor="middle" x="334" y="-403.8" font-family="Times,serif" font-size="14.00" fill="#000000">AboutRoutingModule</text>
</g>
<!-- AboutRoutingModule&#45;&gt;AboutModule -->
<g id="edge2" class="edge">
<title>AboutRoutingModule&#45;&gt;AboutModule</title>
<path fill="none" stroke="#000000" d="M383.2795,-426.1061C383.2795,-426.1061 383.2795,-444.991 383.2795,-444.991"/>
<polygon fill="#000000" stroke="#000000" points="379.7795,-444.9909 383.2795,-454.991 386.7795,-444.991 379.7795,-444.9909"/>
</g>
<!-- RouterModule  -->
<g id="node7" class="node">
<title>RouterModule </title>
<polygon fill="#fb8072" stroke="#000000" points="125.6523,-350 24.3477,-350 24.3477,-314 125.6523,-314 125.6523,-350"/>
<text text-anchor="middle" x="75" y="-327.8" font-family="Times,serif" font-size="14.00" fill="#000000">RouterModule </text>
</g>
<!-- AboutRoutingModule&#45;&gt;RouterModule  -->
<g id="edge6" class="edge">
<title>AboutRoutingModule&#45;&gt;RouterModule </title>
<path fill="none" stroke="#000000" stroke-dasharray="5,2" d="M264.252,-408C187.5401,-408 75,-408 75,-408 75,-408 75,-360.0109 75,-360.0109"/>
<polygon fill="#000000" stroke="#000000" points="78.5001,-360.0109 75,-350.0109 71.5001,-360.011 78.5001,-360.0109"/>
</g>
<!-- TodoMVCComponent -->
<g id="node4" class="node">
<title>TodoMVCComponent</title>
<polygon fill="#ffffb3" stroke="#000000" points="659.273,-350 516.727,-350 516.727,-314 659.273,-314 659.273,-350"/>
<text text-anchor="middle" x="588" y="-327.8" font-family="Times,serif" font-size="14.00" fill="#000000">TodoMVCComponent</text>
</g>
<!-- TodoMVCComponent&#45;&gt;AboutRoutingModule -->
<g id="edge3" class="edge">
<title>TodoMVCComponent&#45;&gt;AboutRoutingModule</title>
<path fill="none" stroke="#000000" d="M530.3892,-350.1097C530.3892,-359.897 530.3892,-370 530.3892,-370 530.3892,-370 387.7592,-370 387.7592,-370 387.7592,-370 387.7592,-379.8903 387.7592,-379.8903"/>
<polygon fill="#000000" stroke="#000000" points="384.2593,-379.8903 387.7592,-389.8903 391.2593,-379.8904 384.2593,-379.8903"/>
</g>
<!-- CompodocComponent -->
<g id="node5" class="node">
<title>CompodocComponent</title>
<polygon fill="#ffffb3" stroke="#000000" points="498.2744,-350 355.7256,-350 355.7256,-314 498.2744,-314 498.2744,-350"/>
<text text-anchor="middle" x="427" y="-327.8" font-family="Times,serif" font-size="14.00" fill="#000000">CompodocComponent</text>
</g>
<!-- CompodocComponent&#45;&gt;AboutRoutingModule -->
<g id="edge4" class="edge">
<title>CompodocComponent&#45;&gt;AboutRoutingModule</title>
<path fill="none" stroke="#000000" d="M371.6861,-350.0109C371.6861,-350.0109 371.6861,-379.855 371.6861,-379.855"/>
<polygon fill="#000000" stroke="#000000" points="368.1862,-379.8549 371.6861,-389.855 375.1862,-379.855 368.1862,-379.8549"/>
</g>
<!-- RouterModule.forChild(args) -->
<g id="node6" class="node">
<title>RouterModule.forChild(args)</title>
<polygon fill="#8dd3c7" stroke="#000000" points="331.7323,-350 328.7323,-354 307.7323,-354 304.7323,-350 150.2677,-350 150.2677,-314 331.7323,-314 331.7323,-350"/>
<text text-anchor="middle" x="241" y="-327.8" font-family="Times,serif" font-size="14.00" fill="#000000">RouterModule.forChild(args)</text>
</g>
<!-- RouterModule.forChild(args)&#45;&gt;AboutRoutingModule -->
<g id="edge5" class="edge">
<title>RouterModule.forChild(args)&#45;&gt;AboutRoutingModule</title>
<path fill="none" stroke="#000000" d="M297.8919,-350.0109C297.8919,-350.0109 297.8919,-379.855 297.8919,-379.855"/>
<polygon fill="#000000" stroke="#000000" points="294.3919,-379.8549 297.8919,-389.855 301.3919,-379.855 294.3919,-379.8549"/>
</g>
<!-- HomeRoutingModule -->
<g id="node26" class="node">
<title>HomeRoutingModule</title>
<polygon fill="#8dd3c7" stroke="#000000" points="211.3795,-274 208.3795,-278 187.3795,-278 184.3795,-274 72.6205,-274 72.6205,-238 211.3795,-238 211.3795,-274"/>
<text text-anchor="middle" x="142" y="-251.8" font-family="Times,serif" font-size="14.00" fill="#000000">HomeRoutingModule</text>
</g>
<!-- RouterModule.forChild(args)&#45;&gt;HomeRoutingModule -->
<g id="edge29" class="edge">
<title>RouterModule.forChild(args)&#45;&gt;HomeRoutingModule</title>
<path fill="none" stroke="#000000" d="M170.7358,-313.9891C170.7358,-313.9891 170.7358,-284.145 170.7358,-284.145"/>
<polygon fill="#000000" stroke="#000000" points="174.2359,-284.145 170.7358,-274.145 167.2359,-284.1451 174.2359,-284.145"/>
</g>
<!-- AppComponent -->
<g id="node8" class="node">
<title>AppComponent</title>
<polygon fill="#ffffb3" stroke="#000000" points="1196.9399,-350 1091.0601,-350 1091.0601,-314 1196.9399,-314 1196.9399,-350"/>
<text text-anchor="middle" x="1144" y="-327.8" font-family="Times,serif" font-size="14.00" fill="#000000">AppComponent</text>
</g>
<!-- AppModule -->
<g id="node9" class="node">
<title>AppModule</title>
<polygon fill="#8dd3c7" stroke="#000000" points="979.6571,-426 976.6571,-430 955.6571,-430 952.6571,-426 896.3429,-426 896.3429,-390 979.6571,-390 979.6571,-426"/>
<text text-anchor="middle" x="938" y="-403.8" font-family="Times,serif" font-size="14.00" fill="#000000">AppModule</text>
</g>
<!-- AppComponent&#45;&gt;AppModule -->
<g id="edge7" class="edge">
<title>AppComponent&#45;&gt;AppModule</title>
<path fill="none" stroke="#000000" d="M1144,-350.0109C1144,-372.4852 1144,-408 1144,-408 1144,-408 989.6872,-408 989.6872,-408"/>
<polygon fill="#000000" stroke="#000000" points="989.6872,-404.5001 979.6872,-408 989.6871,-411.5001 989.6872,-404.5001"/>
</g>
<!-- AppComponent  -->
<g id="node12" class="node">
<title>AppComponent </title>
<polygon fill="#80b1d3" stroke="#000000" points="992.439,-491 883.561,-491 883.561,-455 992.439,-455 992.439,-491"/>
<text text-anchor="middle" x="938" y="-468.8" font-family="Times,serif" font-size="14.00" fill="#000000">AppComponent </text>
</g>
<!-- AppModule&#45;&gt;AppComponent  -->
<g id="edge10" class="edge">
<title>AppModule&#45;&gt;AppComponent </title>
<path fill="none" stroke="#000000" stroke-dasharray="1,5" d="M938,-426.1061C938,-426.1061 938,-444.991 938,-444.991"/>
<polygon fill="#000000" stroke="#000000" points="934.5001,-444.9909 938,-454.991 941.5001,-444.991 934.5001,-444.9909"/>
</g>
<!-- HomeModule -->
<g id="node10" class="node">
<title>HomeModule</title>
<polygon fill="#8dd3c7" stroke="#000000" points="920.7619,-350 917.7619,-354 896.7619,-354 893.7619,-350 827.2381,-350 827.2381,-314 920.7619,-314 920.7619,-350"/>
<text text-anchor="middle" x="874" y="-327.8" font-family="Times,serif" font-size="14.00" fill="#000000">HomeModule</text>
</g>
<!-- HomeModule&#45;&gt;AppModule -->
<g id="edge8" class="edge">
<title>HomeModule&#45;&gt;AppModule</title>
<path fill="none" stroke="#000000" d="M908.5263,-350.0109C908.5263,-350.0109 908.5263,-379.855 908.5263,-379.855"/>
<polygon fill="#000000" stroke="#000000" points="905.0264,-379.8549 908.5263,-389.855 912.0264,-379.855 905.0264,-379.8549"/>
</g>
<!-- HomeComponent  -->
<g id="node27" class="node">
<title>HomeComponent </title>
<polygon fill="#fb8072" stroke="#000000" points="696.5442,-274 577.4558,-274 577.4558,-238 696.5442,-238 696.5442,-274"/>
<text text-anchor="middle" x="637" y="-251.8" font-family="Times,serif" font-size="14.00" fill="#000000">HomeComponent </text>
</g>
<!-- HomeModule&#45;&gt;HomeComponent  -->
<g id="edge28" class="edge">
<title>HomeModule&#45;&gt;HomeComponent </title>
<path fill="none" stroke="#000000" stroke-dasharray="5,2" d="M837.3489,-313.9891C837.3489,-291.5148 837.3489,-256 837.3489,-256 837.3489,-256 706.5688,-256 706.5688,-256"/>
<polygon fill="#000000" stroke="#000000" points="706.5689,-252.5001 696.5688,-256 706.5688,-259.5001 706.5689,-252.5001"/>
</g>
<!-- AppRoutingModule -->
<g id="node11" class="node">
<title>AppRoutingModule</title>
<polygon fill="#8dd3c7" stroke="#000000" points="1067.2744,-350 1064.2744,-354 1043.2744,-354 1040.2744,-350 938.7256,-350 938.7256,-314 1067.2744,-314 1067.2744,-350"/>
<text text-anchor="middle" x="1003" y="-327.8" font-family="Times,serif" font-size="14.00" fill="#000000">AppRoutingModule</text>
</g>
<!-- AppRoutingModule&#45;&gt;RouterModule  -->
<g id="edge13" class="edge">
<title>AppRoutingModule&#45;&gt;RouterModule </title>
<path fill="none" stroke="#000000" stroke-dasharray="5,2" d="M961.6517,-313.7604C961.6517,-298.4294 961.6517,-279 961.6517,-279 961.6517,-279 107.9042,-279 107.9042,-279 107.9042,-279 107.9042,-303.7604 107.9042,-303.7604"/>
<polygon fill="#000000" stroke="#000000" points="104.4043,-303.7604 107.9042,-313.7604 111.4043,-303.7604 104.4043,-303.7604"/>
</g>
<!-- AppRoutingModule&#45;&gt;AppModule -->
<g id="edge9" class="edge">
<title>AppRoutingModule&#45;&gt;AppModule</title>
<path fill="none" stroke="#000000" d="M959.2206,-350.0109C959.2206,-350.0109 959.2206,-379.855 959.2206,-379.855"/>
<polygon fill="#000000" stroke="#000000" points="955.7206,-379.8549 959.2206,-389.855 962.7206,-379.855 955.7206,-379.8549"/>
</g>
<!-- TodoStore -->
<g id="node13" class="node">
<title>TodoStore</title>
<ellipse fill="#fdb462" stroke="#000000" cx="751" cy="-332" rx="51.6073" ry="18"/>
<text text-anchor="middle" x="751" y="-327.8" font-family="Times,serif" font-size="14.00" fill="#000000">TodoStore</text>
</g>
<!-- TodoStore&#45;&gt;AppModule -->
<g id="edge11" class="edge">
<title>TodoStore&#45;&gt;AppModule</title>
<path fill="none" stroke="#000000" d="M751,-350.0109C751,-372.4852 751,-408 751,-408 751,-408 886.0335,-408 886.0335,-408"/>
<polygon fill="#000000" stroke="#000000" points="886.0336,-411.5001 896.0335,-408 886.0335,-404.5001 886.0336,-411.5001"/>
</g>
<!-- RouterModule.forRoot(args) -->
<g id="node14" class="node">
<title>RouterModule.forRoot(args)</title>
<polygon fill="#8dd3c7" stroke="#000000" points="1202.8419,-274 1199.8419,-278 1178.8419,-278 1175.8419,-274 1025.1581,-274 1025.1581,-238 1202.8419,-238 1202.8419,-274"/>
<text text-anchor="middle" x="1114" y="-251.8" font-family="Times,serif" font-size="14.00" fill="#000000">RouterModule.forRoot(args)</text>
</g>
<!-- RouterModule.forRoot(args)&#45;&gt;AppRoutingModule -->
<g id="edge12" class="edge">
<title>RouterModule.forRoot(args)&#45;&gt;AppRoutingModule</title>
<path fill="none" stroke="#000000" d="M1046.3582,-274.0109C1046.3582,-274.0109 1046.3582,-303.855 1046.3582,-303.855"/>
<polygon fill="#000000" stroke="#000000" points="1042.8582,-303.8549 1046.3582,-313.855 1049.8582,-303.855 1042.8582,-303.8549"/>
</g>
<!-- FooterComponent -->
<g id="node15" class="node">
<title>FooterComponent</title>
<polygon fill="#ffffb3" stroke="#000000" points="984.8809,-122 867.1191,-122 867.1191,-86 984.8809,-86 984.8809,-122"/>
<text text-anchor="middle" x="926" y="-99.8" font-family="Times,serif" font-size="14.00" fill="#000000">FooterComponent</text>
</g>
<!-- FooterModule -->
<g id="node16" class="node">
<title>FooterModule</title>
<polygon fill="#8dd3c7" stroke="#000000" points="973.0983,-198 970.0983,-202 949.0983,-202 946.0983,-198 876.9017,-198 876.9017,-162 973.0983,-162 973.0983,-198"/>
<text text-anchor="middle" x="925" y="-175.8" font-family="Times,serif" font-size="14.00" fill="#000000">FooterModule</text>
</g>
<!-- FooterComponent&#45;&gt;FooterModule -->
<g id="edge14" class="edge">
<title>FooterComponent&#45;&gt;FooterModule</title>
<path fill="none" stroke="#000000" d="M925,-122.0109C925,-122.0109 925,-151.855 925,-151.855"/>
<polygon fill="#000000" stroke="#000000" points="921.5001,-151.8549 925,-161.855 928.5001,-151.855 921.5001,-151.8549"/>
</g>
<!-- FooterModule&#45;&gt;HomeModule -->
<g id="edge26" class="edge">
<title>FooterModule&#45;&gt;HomeModule</title>
<path fill="none" stroke="#000000" d="M876.8433,-186C863.8911,-186 853.3982,-186 853.3982,-186 853.3982,-186 853.3982,-303.8042 853.3982,-303.8042"/>
<polygon fill="#000000" stroke="#000000" points="849.8982,-303.8042 853.3982,-313.8042 856.8982,-303.8042 849.8982,-303.8042"/>
</g>
<!-- FooterComponent  -->
<g id="node18" class="node">
<title>FooterComponent </title>
<polygon fill="#fb8072" stroke="#000000" points="984.8814,-274 863.1186,-274 863.1186,-238 984.8814,-238 984.8814,-274"/>
<text text-anchor="middle" x="924" y="-251.8" font-family="Times,serif" font-size="14.00" fill="#000000">FooterComponent </text>
</g>
<!-- FooterModule&#45;&gt;FooterComponent  -->
<g id="edge16" class="edge">
<title>FooterModule&#45;&gt;FooterComponent </title>
<path fill="none" stroke="#000000" stroke-dasharray="5,2" d="M925,-198.0109C925,-198.0109 925,-227.855 925,-227.855"/>
<polygon fill="#000000" stroke="#000000" points="921.5001,-227.8549 925,-237.855 928.5001,-227.855 921.5001,-227.8549"/>
</g>
<!-- BrowserModule -->
<g id="node17" class="node">
<title>BrowserModule</title>
<polygon fill="#8dd3c7" stroke="#000000" points="843.4734,-122 840.4734,-126 819.4734,-126 816.4734,-122 736.5266,-122 736.5266,-86 843.4734,-86 843.4734,-122"/>
<text text-anchor="middle" x="790" y="-99.8" font-family="Times,serif" font-size="14.00" fill="#000000">BrowserModule</text>
</g>
<!-- BrowserModule&#45;&gt;HomeModule -->
<g id="edge21" class="edge">
<title>BrowserModule&#45;&gt;HomeModule</title>
<path fill="none" stroke="#000000" d="M839.3948,-122.2728C839.3948,-122.2728 839.3948,-303.9567 839.3948,-303.9567"/>
<polygon fill="#000000" stroke="#000000" points="835.8949,-303.9566 839.3948,-313.9567 842.8949,-303.9567 835.8949,-303.9566"/>
</g>
<!-- BrowserModule&#45;&gt;FooterModule -->
<g id="edge15" class="edge">
<title>BrowserModule&#45;&gt;FooterModule</title>
<path fill="none" stroke="#000000" d="M841.4408,-122.0267C841.4408,-142.7672 841.4408,-174 841.4408,-174 841.4408,-174 866.8774,-174 866.8774,-174"/>
<polygon fill="#000000" stroke="#000000" points="866.8774,-177.5001 876.8774,-174 866.8774,-170.5001 866.8774,-177.5001"/>
</g>
<!-- ListModule -->
<g id="node25" class="node">
<title>ListModule</title>
<polygon fill="#8dd3c7" stroke="#000000" points="310.8289,-274 307.8289,-278 286.8289,-278 283.8289,-274 229.1711,-274 229.1711,-238 310.8289,-238 310.8289,-274"/>
<text text-anchor="middle" x="270" y="-251.8" font-family="Times,serif" font-size="14.00" fill="#000000">ListModule</text>
</g>
<!-- BrowserModule&#45;&gt;ListModule -->
<g id="edge33" class="edge">
<title>BrowserModule&#45;&gt;ListModule</title>
<path fill="none" stroke="#000000" d="M780.7066,-122.1149C780.7066,-155.8699 780.7066,-225 780.7066,-225 780.7066,-225 304.3603,-225 304.3603,-225 304.3603,-225 304.3603,-227.9672 304.3603,-227.9672"/>
<polygon fill="#000000" stroke="#000000" points="300.8604,-227.9671 304.3603,-237.9672 307.8604,-227.9672 300.8604,-227.9671"/>
</g>
<!-- TodoModule -->
<g id="node29" class="node">
<title>TodoModule</title>
<polygon fill="#8dd3c7" stroke="#000000" points="374.6025,-198 371.6025,-202 350.6025,-202 347.6025,-198 285.3975,-198 285.3975,-162 374.6025,-162 374.6025,-198"/>
<text text-anchor="middle" x="330" y="-175.8" font-family="Times,serif" font-size="14.00" fill="#000000">TodoModule</text>
</g>
<!-- BrowserModule&#45;&gt;TodoModule -->
<g id="edge38" class="edge">
<title>BrowserModule&#45;&gt;TodoModule</title>
<path fill="none" stroke="#000000" d="M758.61,-122.1097C758.61,-131.897 758.61,-142 758.61,-142 758.61,-142 370.2981,-142 370.2981,-142 370.2981,-142 370.2981,-151.8903 370.2981,-151.8903"/>
<polygon fill="#000000" stroke="#000000" points="366.7981,-151.8903 370.2981,-161.8903 373.7981,-151.8904 366.7981,-151.8903"/>
</g>
<!-- HeaderComponent -->
<g id="node19" class="node">
<title>HeaderComponent</title>
<polygon fill="#ffffb3" stroke="#000000" points="1550.7437,-198 1429.2563,-198 1429.2563,-162 1550.7437,-162 1550.7437,-198"/>
<text text-anchor="middle" x="1490" y="-175.8" font-family="Times,serif" font-size="14.00" fill="#000000">HeaderComponent</text>
</g>
<!-- HeaderModule -->
<g id="node20" class="node">
<title>HeaderModule</title>
<polygon fill="#8dd3c7" stroke="#000000" points="1440.9608,-274 1437.9608,-278 1416.9608,-278 1413.9608,-274 1341.0392,-274 1341.0392,-238 1440.9608,-238 1440.9608,-274"/>
<text text-anchor="middle" x="1391" y="-251.8" font-family="Times,serif" font-size="14.00" fill="#000000">HeaderModule</text>
</g>
<!-- HeaderComponent&#45;&gt;HeaderModule -->
<g id="edge17" class="edge">
<title>HeaderComponent&#45;&gt;HeaderModule</title>
<path fill="none" stroke="#000000" d="M1435.0543,-198.0109C1435.0543,-198.0109 1435.0543,-227.855 1435.0543,-227.855"/>
<polygon fill="#000000" stroke="#000000" points="1431.5544,-227.8549 1435.0543,-237.855 1438.5544,-227.855 1431.5544,-227.8549"/>
</g>
<!-- HeaderModule&#45;&gt;HomeModule -->
<g id="edge24" class="edge">
<title>HeaderModule&#45;&gt;HomeModule</title>
<path fill="none" stroke="#000000" d="M1374.3399,-274.0449C1374.3399,-281.749 1374.3399,-289 1374.3399,-289 1374.3399,-289 901.6904,-289 901.6904,-289 901.6904,-289 901.6904,-303.5146 901.6904,-303.5146"/>
<polygon fill="#000000" stroke="#000000" points="898.1905,-303.5145 901.6904,-313.5146 905.1905,-303.5146 898.1905,-303.5145"/>
</g>
<!-- HeaderComponent  -->
<g id="node22" class="node">
<title>HeaderComponent </title>
<polygon fill="#fb8072" stroke="#000000" points="1453.7436,-350 1328.2564,-350 1328.2564,-314 1453.7436,-314 1453.7436,-350"/>
<text text-anchor="middle" x="1391" y="-327.8" font-family="Times,serif" font-size="14.00" fill="#000000">HeaderComponent </text>
</g>
<!-- HeaderModule&#45;&gt;HeaderComponent  -->
<g id="edge19" class="edge">
<title>HeaderModule&#45;&gt;HeaderComponent </title>
<path fill="none" stroke="#000000" stroke-dasharray="5,2" d="M1407.6601,-274.0109C1407.6601,-274.0109 1407.6601,-303.855 1407.6601,-303.855"/>
<polygon fill="#000000" stroke="#000000" points="1404.1602,-303.8549 1407.6601,-313.855 1411.1602,-303.855 1404.1602,-303.8549"/>
</g>
<!-- FormsModule -->
<g id="node21" class="node">
<title>FormsModule</title>
<polygon fill="#8dd3c7" stroke="#000000" points="1404.8288,-198 1401.8288,-202 1380.8288,-202 1377.8288,-198 1309.1712,-198 1309.1712,-162 1404.8288,-162 1404.8288,-198"/>
<text text-anchor="middle" x="1357" y="-175.8" font-family="Times,serif" font-size="14.00" fill="#000000">FormsModule</text>
</g>
<!-- FormsModule&#45;&gt;HomeModule -->
<g id="edge22" class="edge">
<title>FormsModule&#45;&gt;HomeModule</title>
<path fill="none" stroke="#000000" d="M1318.8571,-198.1154C1318.8571,-227.9121 1318.8571,-284 1318.8571,-284 1318.8571,-284 882.5,-284 882.5,-284 882.5,-284 882.5,-303.8533 882.5,-303.8533"/>
<polygon fill="#000000" stroke="#000000" points="879.0001,-303.8532 882.5,-313.8533 886.0001,-303.8533 879.0001,-303.8532"/>
</g>
<!-- FormsModule&#45;&gt;HeaderModule -->
<g id="edge18" class="edge">
<title>FormsModule&#45;&gt;HeaderModule</title>
<path fill="none" stroke="#000000" d="M1372.8419,-198.0109C1372.8419,-198.0109 1372.8419,-227.855 1372.8419,-227.855"/>
<polygon fill="#000000" stroke="#000000" points="1369.3419,-227.8549 1372.8419,-237.855 1376.3419,-227.855 1369.3419,-227.8549"/>
</g>
<!-- HomeComponent -->
<g id="node23" class="node">
<title>HomeComponent</title>
<polygon fill="#ffffb3" stroke="#000000" points="552.5451,-274 437.4549,-274 437.4549,-238 552.5451,-238 552.5451,-274"/>
<text text-anchor="middle" x="495" y="-251.8" font-family="Times,serif" font-size="14.00" fill="#000000">HomeComponent</text>
</g>
<!-- HomeComponent&#45;&gt;HomeModule -->
<g id="edge20" class="edge">
<title>HomeComponent&#45;&gt;HomeModule</title>
<path fill="none" stroke="#000000" d="M534.6929,-274.1097C534.6929,-283.897 534.6929,-294 534.6929,-294 534.6929,-294 835.303,-294 835.303,-294 835.303,-294 835.303,-303.8903 835.303,-303.8903"/>
<polygon fill="#000000" stroke="#000000" points="831.803,-303.8903 835.303,-313.8903 838.803,-303.8904 831.803,-303.8903"/>
</g>
<!-- HttpModule -->
<g id="node24" class="node">
<title>HttpModule</title>
<polygon fill="#8dd3c7" stroke="#000000" points="413.4387,-274 410.4387,-278 389.4387,-278 386.4387,-274 328.5613,-274 328.5613,-238 413.4387,-238 413.4387,-274"/>
<text text-anchor="middle" x="371" y="-251.8" font-family="Times,serif" font-size="14.00" fill="#000000">HttpModule</text>
</g>
<!-- HttpModule&#45;&gt;HomeModule -->
<g id="edge23" class="edge">
<title>HttpModule&#45;&gt;HomeModule</title>
<path fill="none" stroke="#000000" d="M384.4159,-274.4854C384.4159,-286.1399 384.4159,-299 384.4159,-299 384.4159,-299 833.257,-299 833.257,-299 833.257,-299 833.257,-303.9551 833.257,-303.9551"/>
<polygon fill="#000000" stroke="#000000" points="829.7571,-303.9551 833.257,-313.9551 836.7571,-303.9552 829.7571,-303.9551"/>
</g>
<!-- ListModule&#45;&gt;HomeModule -->
<g id="edge25" class="edge">
<title>ListModule&#45;&gt;HomeModule</title>
<path fill="none" stroke="#000000" d="M270,-274.1467C270,-287.7395 270,-304 270,-304 270,-304 831.2111,-304 831.2111,-304 831.2111,-304 831.2111,-304.9793 831.2111,-304.9793"/>
<polygon fill="#000000" stroke="#000000" points="827.7112,-303.793 831.2111,-313.793 834.7112,-303.7931 827.7112,-303.793"/>
</g>
<!-- ListComponent  -->
<g id="node30" class="node">
<title>ListComponent </title>
<polygon fill="#fb8072" stroke="#000000" points="261.1115,-198 154.8885,-198 154.8885,-162 261.1115,-162 261.1115,-198"/>
<text text-anchor="middle" x="208" y="-175.8" font-family="Times,serif" font-size="14.00" fill="#000000">ListComponent </text>
</g>
<!-- ListModule&#45;&gt;ListComponent  -->
<g id="edge34" class="edge">
<title>ListModule&#45;&gt;ListComponent </title>
<path fill="none" stroke="#000000" stroke-dasharray="5,2" d="M245.3207,-237.9891C245.3207,-237.9891 245.3207,-208.145 245.3207,-208.145"/>
<polygon fill="#000000" stroke="#000000" points="248.8207,-208.145 245.3207,-198.145 241.8207,-208.1451 248.8207,-208.145"/>
</g>
<!-- HomeRoutingModule&#45;&gt;RouterModule  -->
<g id="edge30" class="edge">
<title>HomeRoutingModule&#45;&gt;RouterModule </title>
<path fill="none" stroke="#000000" stroke-dasharray="5,2" d="M90.2322,-274.0109C90.2322,-274.0109 90.2322,-303.855 90.2322,-303.855"/>
<polygon fill="#000000" stroke="#000000" points="86.7323,-303.8549 90.2322,-313.855 93.7323,-303.855 86.7323,-303.8549"/>
</g>
<!-- HomeRoutingModule&#45;&gt;HomeModule -->
<g id="edge27" class="edge">
<title>HomeRoutingModule&#45;&gt;HomeModule</title>
<path fill="none" stroke="#000000" d="M191.0878,-274.2396C191.0878,-289.5706 191.0878,-309 191.0878,-309 191.0878,-309 829.1651,-309 829.1651,-309 829.1651,-309 829.1651,-309.4878 829.1651,-309.4878"/>
<polygon fill="#000000" stroke="#000000" points="825.6654,-303.8776 829.1651,-313.8777 832.6654,-303.8778 825.6654,-303.8776"/>
</g>
<!-- ListComponent -->
<g id="node28" class="node">
<title>ListComponent</title>
<polygon fill="#ffffb3" stroke="#000000" points="502.6109,-198 399.3891,-198 399.3891,-162 502.6109,-162 502.6109,-198"/>
<text text-anchor="middle" x="451" y="-175.8" font-family="Times,serif" font-size="14.00" fill="#000000">ListComponent</text>
</g>
<!-- ListComponent&#45;&gt;ListModule -->
<g id="edge31" class="edge">
<title>ListComponent&#45;&gt;ListModule</title>
<path fill="none" stroke="#000000" d="M406.3317,-198.2434C406.3317,-205.4297 406.3317,-212 406.3317,-212 406.3317,-212 298.0565,-212 298.0565,-212 298.0565,-212 298.0565,-227.8495 298.0565,-227.8495"/>
<polygon fill="#000000" stroke="#000000" points="294.5565,-227.8494 298.0565,-237.8495 301.5565,-227.8495 294.5565,-227.8494"/>
</g>
<!-- TodoModule&#45;&gt;ListModule -->
<g id="edge32" class="edge">
<title>TodoModule&#45;&gt;ListModule</title>
<path fill="none" stroke="#000000" d="M291.7526,-198.0109C291.7526,-198.0109 291.7526,-227.855 291.7526,-227.855"/>
<polygon fill="#000000" stroke="#000000" points="288.2527,-227.8549 291.7526,-237.855 295.2527,-227.855 288.2527,-227.8549"/>
</g>
<!-- TodoComponent  -->
<g id="node34" class="node">
<title>TodoComponent </title>
<polygon fill="#fb8072" stroke="#000000" points="202.3857,-122 87.6143,-122 87.6143,-86 202.3857,-86 202.3857,-122"/>
<text text-anchor="middle" x="145" y="-99.8" font-family="Times,serif" font-size="14.00" fill="#000000">TodoComponent </text>
</g>
<!-- TodoModule&#45;&gt;TodoComponent  -->
<g id="edge39" class="edge">
<title>TodoModule&#45;&gt;TodoComponent </title>
<path fill="none" stroke="#000000" stroke-dasharray="5,2" d="M309.4787,-161.793C309.4787,-156.4451 309.4787,-152 309.4787,-152 309.4787,-152 178.4435,-152 178.4435,-152 178.4435,-152 178.4435,-132.1467 178.4435,-132.1467"/>
<polygon fill="#000000" stroke="#000000" points="181.9436,-132.1467 178.4435,-122.1467 174.9436,-132.1468 181.9436,-132.1467"/>
</g>
<!-- TodoComponent -->
<g id="node31" class="node">
<title>TodoComponent</title>
<polygon fill="#ffffb3" stroke="#000000" points="605.3851,-122 494.6149,-122 494.6149,-86 605.3851,-86 605.3851,-122"/>
<text text-anchor="middle" x="550" y="-99.8" font-family="Times,serif" font-size="14.00" fill="#000000">TodoComponent</text>
</g>
<!-- TodoComponent&#45;&gt;TodoModule -->
<g id="edge35" class="edge">
<title>TodoComponent&#45;&gt;TodoModule</title>
<path fill="none" stroke="#000000" d="M498.5565,-122.207C498.5565,-127.5549 498.5565,-132 498.5565,-132 498.5565,-132 366.0449,-132 366.0449,-132 366.0449,-132 366.0449,-151.8533 366.0449,-151.8533"/>
<polygon fill="#000000" stroke="#000000" points="362.545,-151.8532 366.0449,-161.8533 369.545,-151.8533 362.545,-151.8532"/>
</g>
<!-- FirstUpperPipe -->
<g id="node32" class="node">
<title>FirstUpperPipe</title>
<polygon fill="#ffffb3" stroke="#000000" points="476.5396,-122 375.4604,-122 375.4604,-86 476.5396,-86 476.5396,-122"/>
<text text-anchor="middle" x="426" y="-99.8" font-family="Times,serif" font-size="14.00" fill="#000000">FirstUpperPipe</text>
</g>
<!-- FirstUpperPipe&#45;&gt;TodoModule -->
<g id="edge36" class="edge">
<title>FirstUpperPipe&#45;&gt;TodoModule</title>
<path fill="none" stroke="#000000" d="M375.4087,-104C367.4507,-104 361.7918,-104 361.7918,-104 361.7918,-104 361.7918,-151.9891 361.7918,-151.9891"/>
<polygon fill="#000000" stroke="#000000" points="358.2918,-151.989 361.7918,-161.9891 365.2918,-151.9891 358.2918,-151.989"/>
</g>
<!-- DoNothingDirective -->
<g id="node33" class="node">
<title>DoNothingDirective</title>
<polygon fill="#ffffb3" stroke="#000000" points="357.5772,-122 226.4228,-122 226.4228,-86 357.5772,-86 357.5772,-122"/>
<text text-anchor="middle" x="292" y="-99.8" font-family="Times,serif" font-size="14.00" fill="#000000">DoNothingDirective</text>
</g>
<!-- DoNothingDirective&#45;&gt;TodoModule -->
<g id="edge37" class="edge">
<title>DoNothingDirective&#45;&gt;TodoModule</title>
<path fill="none" stroke="#000000" d="M333.5087,-122.0109C333.5087,-122.0109 333.5087,-151.855 333.5087,-151.855"/>
<polygon fill="#000000" stroke="#000000" points="330.0088,-151.8549 333.5087,-161.855 337.0088,-151.855 330.0088,-151.8549"/>
</g>
</g>
</svg>
